<?xml version="1.0" encoding="UTF-8" ?>
<!DOCTYPE svg PUBLIC "-//W3C//DTD SVG 1.1//EN" "http://www.w3.org/Graphics/SVG/1.1/DTD/svg11.dtd">
<svg width="460pt" height="460pt" viewBox="0 0 460 460" version="1.1" xmlns="http://www.w3.org/2000/svg">
<path fill="#ffffff" d=" M 0.00 0.00 L 460.00 0.00 L 460.00 460.00 L 0.00 460.00 L 0.00 0.00 Z" />
<path fill="#000000" d=" M 133.53 34.19 C 198.65 34.20 263.77 34.20 328.90 34.19 C 328.89 45.04 328.92 55.90 328.88 66.75 C 339.75 66.78 350.62 66.76 361.48 66.76 C 361.49 77.62 361.48 88.48 361.49 99.33 C 372.35 99.33 383.21 99.32 394.07 99.33 C 394.08 110.18 394.06 121.03 394.07 131.88 C 404.90 131.86 415.72 131.94 426.55 131.84 C 426.72 186.13 426.57 240.43 426.62 294.72 C 415.77 294.72 404.92 294.75 394.07 294.71 C 394.07 305.57 394.07 316.42 394.07 327.28 C 383.21 327.30 372.35 327.28 361.48 327.29 C 361.49 338.15 361.49 349.00 361.48 359.85 C 351.08 359.83 340.68 359.89 330.28 359.81 C 329.41 359.94 328.94 360.43 328.86 361.31 C 328.93 371.68 328.88 382.05 328.90 392.42 C 318.05 392.42 307.20 392.43 296.35 392.42 C 296.34 381.56 296.34 370.70 296.35 359.85 C 306.77 359.99 317.20 359.55 327.61 360.09 C 328.11 359.60 328.62 359.11 329.13 358.62 C 328.62 348.19 329.02 337.74 328.90 327.30 C 339.76 327.27 350.62 327.30 361.48 327.29 C 361.49 316.43 361.47 305.58 361.49 294.72 C 372.32 294.53 383.21 295.10 394.00 294.46 C 394.16 262.00 394.02 229.52 394.07 197.06 C 393.99 175.39 394.20 153.72 393.97 132.05 C 383.13 131.62 372.27 132.12 361.42 131.79 C 361.50 121.01 361.44 110.22 361.49 99.44 C 350.64 99.15 339.78 99.50 328.93 99.27 C 328.81 88.49 328.96 77.71 328.87 66.93 C 265.92 66.50 202.96 66.96 140.02 66.70 C 137.81 66.69 135.62 66.99 133.46 67.35 C 133.52 78.01 133.70 88.68 133.39 99.34 C 122.67 99.32 111.94 99.40 101.22 99.26 C 100.57 110.12 101.14 121.00 100.91 131.86 C 90.13 131.93 79.36 131.89 68.58 131.86 C 68.15 153.58 68.53 175.31 68.39 197.04 C 68.39 225.02 68.39 252.99 68.39 280.97 C 68.39 285.19 68.52 289.42 68.15 293.63 C 68.53 294.08 68.91 294.52 69.30 294.97 C 79.82 294.41 90.38 294.86 100.92 294.73 C 100.93 305.58 100.92 316.44 100.92 327.30 C 111.79 327.28 122.66 327.29 133.53 327.29 C 133.52 338.14 133.53 349.00 133.52 359.85 C 144.38 359.85 155.24 359.85 166.10 359.85 C 166.10 370.70 166.10 381.56 166.10 392.42 C 155.24 392.43 144.38 392.42 133.52 392.42 C 133.52 381.56 133.53 370.71 133.52 359.85 C 122.65 359.84 111.78 359.88 100.92 359.83 C 100.89 348.97 100.99 338.10 100.87 327.25 C 90.04 327.35 79.22 327.26 68.39 327.29 C 68.39 317.46 68.35 307.63 68.42 297.79 C 68.89 296.45 68.01 294.93 66.65 294.70 C 56.38 294.75 46.11 294.70 35.84 294.74 C 35.79 240.45 35.83 186.17 35.83 131.88 C 46.68 131.88 57.53 131.88 68.38 131.88 C 68.39 121.03 68.38 110.18 68.39 99.33 C 79.23 99.32 90.08 99.33 100.92 99.33 C 100.92 88.48 100.92 77.62 100.92 66.77 C 111.79 66.75 122.66 66.77 133.53 66.76 C 133.51 55.91 133.52 45.05 133.53 34.19 Z" />
<path fill="#482400" d=" M 133.46 67.35 C 135.62 66.99 137.81 66.69 140.02 66.70 C 202.96 66.96 265.92 66.50 328.87 66.93 C 328.96 77.71 328.81 88.49 328.93 99.27 C 339.78 99.50 350.64 99.15 361.49 99.44 C 361.44 110.22 361.50 121.01 361.42 131.79 C 372.27 132.12 383.13 131.62 393.97 132.05 C 394.20 153.72 393.99 175.39 394.07 197.06 C 383.20 197.03 372.34 197.05 361.48 197.04 C 350.74 197.13 339.98 196.63 329.26 197.27 C 328.47 208.02 329.09 218.82 328.90 229.60 C 318.05 229.59 307.20 229.60 296.35 229.60 C 285.49 229.62 274.64 229.52 263.78 229.65 C 263.79 218.78 263.78 207.91 263.79 197.04 C 285.49 197.03 307.19 197.05 328.88 197.03 C 328.90 175.31 328.90 153.60 328.88 131.89 C 318.04 131.89 307.20 131.87 296.36 131.90 C 296.35 142.75 296.37 153.60 296.35 164.46 C 252.93 164.47 209.51 164.46 166.09 164.46 C 166.09 153.60 166.11 142.74 166.09 131.89 C 155.24 131.88 144.39 131.88 133.54 131.89 C 133.52 153.60 133.52 175.31 133.54 197.03 C 155.25 197.06 176.96 197.01 198.67 197.05 C 198.65 207.93 198.66 218.81 198.66 229.70 C 187.81 229.48 176.95 229.64 166.09 229.60 C 155.24 229.60 144.39 229.59 133.54 229.60 C 133.63 218.85 133.69 208.09 133.54 197.34 C 122.69 196.55 111.79 197.15 100.92 197.04 C 90.08 197.05 79.24 197.04 68.39 197.04 C 68.53 175.31 68.15 153.58 68.58 131.86 C 79.36 131.89 90.13 131.93 100.91 131.86 C 101.14 121.00 100.57 110.12 101.22 99.26 C 111.94 99.40 122.67 99.32 133.39 99.34 C 133.70 88.68 133.52 78.01 133.46 67.35 Z" />
<path fill="#fcd8aa" d=" M 133.54 131.89 C 144.39 131.88 155.24 131.88 166.09 131.89 C 166.11 142.74 166.09 153.60 166.09 164.46 C 209.51 164.46 252.93 164.47 296.35 164.46 C 296.37 153.60 296.35 142.75 296.36 131.90 C 307.20 131.87 318.04 131.89 328.88 131.89 C 328.90 153.60 328.90 175.31 328.88 197.03 C 307.19 197.05 285.49 197.03 263.79 197.04 C 263.78 207.91 263.79 218.78 263.78 229.65 C 263.78 240.48 263.78 251.31 263.78 262.14 C 263.79 273.00 263.77 283.87 263.79 294.73 C 274.65 294.72 285.50 294.73 296.35 294.73 C 307.18 294.71 318.01 294.71 328.84 294.73 C 328.97 283.87 328.85 273.01 328.90 262.15 C 339.76 262.17 350.62 262.16 361.48 262.16 C 361.49 240.45 361.50 218.75 361.48 197.04 C 372.34 197.05 383.20 197.03 394.07 197.06 C 394.02 229.52 394.16 262.00 394.00 294.46 C 383.21 295.10 372.32 294.53 361.49 294.72 C 361.47 305.58 361.49 316.43 361.48 327.29 C 350.62 327.30 339.76 327.27 328.90 327.30 C 329.02 337.74 328.62 348.19 329.13 358.62 C 328.62 359.11 328.11 359.60 327.61 360.09 C 317.20 359.55 306.77 359.99 296.35 359.85 C 296.38 349.01 296.32 338.18 296.38 327.34 C 252.96 327.22 209.53 327.33 166.10 327.29 C 166.09 338.14 166.09 348.99 166.10 359.85 C 155.24 359.85 144.38 359.85 133.52 359.85 C 133.53 349.00 133.52 338.14 133.53 327.29 C 122.66 327.29 111.79 327.28 100.92 327.30 C 100.92 316.44 100.93 305.58 100.92 294.73 C 90.38 294.86 79.82 294.41 69.30 294.97 C 68.91 294.52 68.53 294.08 68.15 293.63 C 68.52 289.42 68.39 285.19 68.39 280.97 C 68.39 252.99 68.39 225.02 68.39 197.04 C 79.24 197.04 90.08 197.05 100.92 197.04 C 100.91 218.74 100.91 240.45 100.92 262.16 C 111.79 262.17 122.66 262.16 133.53 262.16 C 133.51 272.94 133.61 283.72 133.45 294.50 C 144.32 295.01 155.21 294.57 166.09 294.72 C 176.95 294.73 187.80 294.73 198.66 294.72 C 198.66 283.86 198.66 273.00 198.66 262.14 C 198.66 251.32 198.66 240.51 198.66 229.70 C 198.66 218.81 198.65 207.93 198.67 197.05 C 176.96 197.01 155.25 197.06 133.54 197.03 C 133.52 175.31 133.52 153.60 133.54 131.89 Z" />
<path fill="#480000" d=" M 100.92 197.04 C 111.79 197.15 122.69 196.55 133.54 197.34 C 133.69 208.09 133.63 218.85 133.54 229.60 C 133.51 240.45 133.53 251.30 133.53 262.16 C 122.66 262.16 111.79 262.17 100.92 262.16 C 100.91 240.45 100.91 218.74 100.92 197.04 Z" />
<path fill="#480000" d=" M 329.26 197.27 C 339.98 196.63 350.74 197.13 361.48 197.04 C 361.50 218.75 361.49 240.45 361.48 262.16 C 350.62 262.16 339.76 262.17 328.90 262.15 C 328.90 251.30 328.89 240.45 328.90 229.60 C 329.09 218.82 328.47 208.02 329.26 197.27 Z" />
<path fill="#ffffff" d=" M 133.54 229.60 C 144.39 229.59 155.24 229.60 166.09 229.60 C 166.09 240.44 166.09 251.28 166.09 262.12 C 166.09 272.99 166.10 283.86 166.09 294.72 C 155.21 294.57 144.32 295.01 133.45 294.50 C 133.61 283.72 133.51 272.94 133.53 262.16 C 133.53 251.30 133.51 240.45 133.54 229.60 Z" />
<path fill="#002400" d=" M 166.09 229.60 C 176.95 229.64 187.81 229.48 198.66 229.70 C 198.66 240.51 198.66 251.32 198.66 262.14 C 187.80 262.17 176.95 262.21 166.09 262.12 C 166.09 251.28 166.09 240.44 166.09 229.60 Z" />
<path fill="#002400" d=" M 263.78 229.65 C 274.64 229.52 285.49 229.62 296.35 229.60 C 296.36 240.45 296.35 251.30 296.36 262.15 C 285.50 262.18 274.64 262.19 263.78 262.14 C 263.78 251.31 263.78 240.48 263.78 229.65 Z" />
<path fill="#ffffff" d=" M 296.35 229.60 C 307.20 229.60 318.05 229.59 328.90 229.60 C 328.89 240.45 328.90 251.30 328.90 262.15 C 328.85 273.01 328.97 283.87 328.84 294.73 C 318.01 294.71 307.18 294.71 296.35 294.73 C 296.36 283.87 296.35 273.01 296.36 262.15 C 296.35 251.30 296.36 240.45 296.35 229.60 Z" />
<path fill="#482400" d=" M 166.09 262.12 C 176.95 262.21 187.80 262.17 198.66 262.14 C 198.66 273.00 198.66 283.86 198.66 294.72 C 187.80 294.73 176.95 294.73 166.09 294.72 C 166.10 283.86 166.09 272.99 166.09 262.12 Z" />
<path fill="#482400" d=" M 263.78 262.14 C 274.64 262.19 285.50 262.18 296.36 262.15 C 296.35 273.01 296.36 283.87 296.35 294.73 C 285.50 294.73 274.65 294.72 263.79 294.73 C 263.77 283.87 263.79 273.00 263.78 262.14 Z" />
<path fill="#482400" d=" M 166.10 327.29 C 209.53 327.33 252.96 327.22 296.38 327.34 C 296.32 338.18 296.38 349.01 296.35 359.85 C 296.34 370.70 296.34 381.56 296.35 392.42 C 296.35 403.26 296.36 414.11 296.35 424.96 C 252.93 424.97 209.51 424.98 166.08 424.96 C 166.11 414.11 166.08 403.26 166.10 392.42 C 166.10 381.56 166.10 370.70 166.10 359.85 C 166.09 348.99 166.09 338.14 166.10 327.29 Z" />
<path fill="#fcd8aa" d=" M 198.67 359.86 C 220.37 359.85 242.07 359.85 263.78 359.86 C 263.72 370.74 263.93 381.62 263.67 392.50 C 242.00 392.31 220.33 392.48 198.66 392.42 C 198.66 381.56 198.66 370.71 198.67 359.86 Z" />
</svg>
