<?xml version="1.0" ?><!DOCTYPE svg  PUBLIC '-//W3C//DTD SVG 1.1//EN'  'http://www.w3.org/Graphics/SVG/1.1/DTD/svg11.dtd'><svg enable-background="new 0 0 160 80" id="Layer_1" version="1.1" viewBox="0 0 160 80" xml:space="preserve" xmlns="http://www.w3.org/2000/svg" xmlns:xlink="http://www.w3.org/1999/xlink"><g><rect clip-rule="evenodd" fill-rule="evenodd" height="5" width="9" x="75" y="61"/><rect clip-rule="evenodd" fill-rule="evenodd" height="5" width="5" x="82" y="56"/><rect clip-rule="evenodd" fill-rule="evenodd" height="5" width="15" x="72" y="46"/><rect clip-rule="evenodd" fill-rule="evenodd" height="5" width="5" x="72" y="56"/><rect clip-rule="evenodd" fill-rule="evenodd" height="5" width="5" x="82" y="51"/><rect clip-rule="evenodd" fill-rule="evenodd" height="5" width="5" x="72" y="51"/><rect clip-rule="evenodd" fill-rule="evenodd" height="10" width="5" x="87" y="36"/><rect clip-rule="evenodd" fill-rule="evenodd" height="15" width="5" x="77" y="31"/><rect clip-rule="evenodd" fill-rule="evenodd" height="5" width="15" x="72" y="26"/><rect clip-rule="evenodd" fill-rule="evenodd" height="10" width="5" x="67" y="36"/><rect clip-rule="evenodd" fill-rule="evenodd" height="5" width="15" x="72" y="11"/><rect clip-rule="evenodd" fill-rule="evenodd" height="15" width="5" x="92" y="21"/><rect clip-rule="evenodd" fill-rule="evenodd" height="15" width="5" x="62" y="21"/><rect clip-rule="evenodd" fill-rule="evenodd" height="5" width="5" x="87" y="16"/><rect clip-rule="evenodd" fill-rule="evenodd" height="5" width="5" x="67" y="16"/><rect clip-rule="evenodd" fill-rule="evenodd" height="5" width="5" x="52" y="11"/><rect clip-rule="evenodd" fill-rule="evenodd" height="5" width="5" x="47" y="6"/><rect clip-rule="evenodd" fill-rule="evenodd" height="5" width="5" x="52" y="42"/><rect clip-rule="evenodd" fill-rule="evenodd" height="5" width="5" x="47" y="47"/><rect clip-rule="evenodd" fill-rule="evenodd" height="5" width="5" x="42" y="26"/><rect clip-rule="evenodd" fill-rule="evenodd" height="5" width="5" x="37" y="26"/><rect clip-rule="evenodd" fill-rule="evenodd" height="5" width="5" x="102" y="42"/><rect clip-rule="evenodd" fill-rule="evenodd" height="5" width="5" x="107" y="47"/><rect clip-rule="evenodd" fill-rule="evenodd" height="5" width="5" x="102" y="11"/><rect clip-rule="evenodd" fill-rule="evenodd" height="5" width="5" x="107" y="6"/><rect clip-rule="evenodd" fill-rule="evenodd" height="5" width="5" x="112" y="26"/><rect clip-rule="evenodd" fill-rule="evenodd" height="5" width="5" x="117" y="26"/></g></svg>