<?xml version="1.0" ?><!DOCTYPE svg  PUBLIC '-//W3C//DTD SVG 1.1//EN'  'http://www.w3.org/Graphics/SVG/1.1/DTD/svg11.dtd'><svg enable-background="new 0 0 160 80" id="Layer_1" version="1.1" viewBox="0 0 160 80" xml:space="preserve" xmlns="http://www.w3.org/2000/svg" xmlns:xlink="http://www.w3.org/1999/xlink"><g><rect height="6" width="6" x="66" y="6"/></g><g><rect height="6" width="6" x="72" y="6"/></g><g><rect height="6" width="6" x="78" y="6"/></g><g><rect height="6" width="6" x="84" y="6"/></g><g><rect height="6" width="6" x="90" y="12"/></g><g><rect height="6" width="6" x="60" y="12"/></g><g><rect height="6" width="6" x="72" y="24"/></g><g><rect height="6" width="6" x="78" y="24"/></g><g><rect height="6" width="6" x="72" y="42"/></g><g><rect height="6" width="6" x="78" y="42"/></g><g><rect height="6" width="6" x="48" y="42"/></g><g><rect height="6" width="6" x="48" y="36"/></g><g><rect height="6" width="6" x="48" y="30"/></g><g><rect height="6" width="6" x="48" y="24"/></g><g><rect height="6" width="6" x="54" y="18"/></g><g><rect height="6" width="6" x="54" y="48"/></g><g><rect height="6" width="6" x="66" y="36"/></g><g><rect height="6" width="6" x="66" y="30"/></g><g><rect height="6" width="6" x="84" y="36"/></g><g><rect height="6" width="6" x="84" y="30"/></g><g><rect height="6" width="6" x="84" y="60"/></g><g><rect height="6" width="6" x="78" y="60"/></g><g><rect height="6" width="6" x="72" y="60"/></g><g><rect height="6" width="6" x="66" y="60"/></g><g><rect height="6" width="6" x="60" y="54"/></g><g><rect height="6" width="6" x="90" y="54"/></g><g><rect height="6" width="6" x="102" y="24"/></g><g><rect height="6" width="6" x="102" y="30"/></g><g><rect height="6" width="6" x="102" y="36"/></g><g><rect height="6" width="6" x="102" y="42"/></g><g><rect height="6" width="6" x="96" y="48"/></g><g><rect height="6" width="6" x="96" y="18"/></g></svg>