<?xml version="1.0" standalone="no"?>
<!DOCTYPE svg PUBLIC "-//W3C//DTD SVG 20010904//EN"
 "http://www.w3.org/TR/2001/REC-SVG-20010904/DTD/svg10.dtd">
<svg version="1.0" xmlns="http://www.w3.org/2000/svg"
 width="694.000000pt" height="154.000000pt" viewBox="0 0 694.000000 154.000000"
 preserveAspectRatio="xMidYMid meet">
<g transform="translate(0.000000,154.000000) scale(0.100000,-0.100000)"
fill="#000000" stroke="none">
<path d="M230 1210 l0 -130 830 0 830 0 0 130 0 130 -830 0 -830 0 0 -130z"/>
<path d="M2520 1210 l0 -130 995 0 995 0 0 130 0 130 -995 0 -995 0 0 -130z"/>
<path d="M5140 1210 l0 -130 835 0 835 0 0 130 0 130 -835 0 -835 0 0 -130z"/>
<path d="M230 370 l0 -130 350 0 350 0 0 130 0 130 -350 0 -350 0 0 -130z"/>
<path d="M1560 370 l0 -130 1155 0 1155 0 0 130 0 130 -1155 0 -1155 0 0 -130z"/>
</g>
</svg>
